# xmcd
#
# Track frame offsets:
#	150
#	25620
#	42665
#	58355
#	84457
#	136919
#	175301
#	190078
#	203446
#	217949
#	252361
#	270105
#	303603
#
# Disc length: 4651 seconds
#
# Revision: 0
# Processed by: cddbd v1.5.2PL0 Copyright (c) Steve Scherf et al.
# Submitted via: EZCDAudioConverter 1.3.4.1
#
DISCID=b012290d
DTITLE=V/A - Deutsche Elektronische Musik 1/2
DYEAR=1900
DGENRE=
TTITLE0=Can - A Spectacle
TTITLE1=Between - Devotion
TTITLE2=Harmonia - Dino
TTITLE3=Gila - This Morning
TTITLE4=Kollectiv - Rambo Zambo
TTITLE5=Michael Bundt - La Chasse Aux Microbes
TTITLE6=E.M.A.K. - Filmmuzik
TTITLE7=Popol Vuh - Morgengrüss
TTITLE8=Conrad Schnitzler - Auf Dem Schwarzen Canal
TTITLE9=La Düsseldorf  - Rheinita
TTITLE10=Harmonia - Veterano
TTITLE11=Faust - It's A Rainy Day, Sunshine Girl
TTITLE12=Neu! - Hallo Gallo
EXTD=
EXTT0=
EXTT1=
EXTT2=
EXTT3=
EXTT4=
EXTT5=
EXTT6=
EXTT7=
EXTT8=
EXTT9=
EXTT10=
EXTT11=
EXTT12=
PLAYORDER=
